<svg xmlns="http://www.w3.org/2000/svg" viewBox="0 0 64 64" role="img" aria-label="Travel favicon">
  <rect width="64" height="64" rx="18" fill="#315f8c"/>
  <path d="M24 25v-4c0-4 3-7 7-7h4c4 0 7 3 7 7v4h-6v-4c0-1-.8-2-2-2h-2c-1.2 0-2 .8-2 2v4z" fill="#d9e8f6"/>
  <rect x="10" y="24" width="44" height="31" rx="8" fill="#d9e8f6"/>
  <g transform="translate(43 42)">
    <ellipse cx="0" cy="-6" rx="3.8" ry="6" fill="#f3a6b8"/>
    <ellipse cx="5.7" cy="-1.8" rx="3.8" ry="6" fill="#f3a6b8" transform="rotate(72 5.7 -1.8)"/>
    <ellipse cx="3.5" cy="5" rx="3.8" ry="6" fill="#f3a6b8" transform="rotate(144 3.5 5)"/>
    <ellipse cx="-3.5" cy="5" rx="3.8" ry="6" fill="#f3a6b8" transform="rotate(216 -3.5 5)"/>
    <ellipse cx="-5.7" cy="-1.8" rx="3.8" ry="6" fill="#f3a6b8" transform="rotate(288 -5.7 -1.8)"/>
    <path d="M0 0c3-2 6-3 8-1" fill="none" stroke="#ffd86b" stroke-width="2.2" stroke-linecap="round"/>
    <circle cx="5.5" cy="-1.4" r="1.4" fill="#ffd86b"/>
    <circle cx="8" cy="-0.6" r="1.3" fill="#ffd86b"/>
    <circle cx="3.4" cy="0.4" r="1.2" fill="#ffd86b"/>
  </g>
</svg>
